<svg xmlns="http://www.w3.org/2000/svg" width="20" height="20" fill="none"><g clip-path="url(#a)"><path stroke="#121417" stroke-linecap="round" stroke-linejoin="round" stroke-width="2" d="M14.95 14.95A8.391 8.391 0 0 1 10 16.667C4.167 16.667.833 10 .833 10A15.375 15.375 0 0 1 5.05 5.05M7 4c.574-.134 1.91-.653 2.5-.651 5.833 0 9.167 6.666 9.167 6.666-.506.947-1.476 2.664-2.167 3.485m-4-2c-.229.246-1.238.71-1.545.846a2.5 2.5 0 0 1-3.517-2.328c.006-.335.595-1.211.732-1.518 2.328-2.045 3.084-.771 3.33-1"/></g><defs><clipPath id="a"><path fill="#fff" d="M0 0h20v20H0z"/></clipPath></defs></svg>